<?xml version="1.0"?>
<svg xmlns="http://www.w3.org/2000/svg" height="512px" viewBox="0 0 256 256" width="512px" class=""><g><path d="m200.278 205.359a2.5 2.5 0 0 1 -2.5-2.5 29.573 29.573 0 0 0 -26.766-29.274 2.5 2.5 0 0 1 -2.245-2.072 16.2 16.2 0 0 0 -16.022-13.513 2.5 2.5 0 0 1 0-5 21.184 21.184 0 0 1 20.55 15.812 34.177 34.177 0 0 1 29.483 34.043 2.5 2.5 0 0 1 -2.5 2.504z" fill="#ebe7f2" data-original="#EBE7F2" class="" style="fill:#EBE7F2" data-old_color="#ebe7f2"/><path d="m108.855 74.411a2.5 2.5 0 0 1 -2.5-2.5v-15.636a2.5 2.5 0 1 1 5 0v15.636a2.5 2.5 0 0 1 -2.5 2.5z" fill="#ed9abc" data-original="#ED9ABC" class="active-path" style="fill:#000000" data-old_color="#ed9abc"/><path d="m108.855 85.414a2.5 2.5 0 0 1 -2.5-2.5v-1.584a2.5 2.5 0 0 1 5 0v1.584a2.5 2.5 0 0 1 -2.5 2.5z" fill="#ed9abc" data-original="#ED9ABC" class="active-path" style="fill:#000000" data-old_color="#ed9abc"/><path d="m217.291 152.146a2.5 2.5 0 0 1 -1.768-.733l-7.916-7.916a2.5 2.5 0 0 1 3.536-3.536l7.916 7.917a2.5 2.5 0 0 1 -1.768 4.268z" fill="#ebe7f2" data-original="#EBE7F2" class="" style="fill:#EBE7F2" data-old_color="#ebe7f2"/><g fill="#846f75"><path d="m77.99 96.281h28.365v40.575a2.5 2.5 0 0 0 5 0v-40.575h28.366a2.5 2.5 0 0 0 2.236-3.618l-30.865-61.73a2.5 2.5 0 0 0 -4.473 0l-30.865 61.73a2.5 2.5 0 0 0 2.236 3.618zm30.865-58.64 26.821 53.64h-53.641z" data-original="#846F75" class="" data-old_color="#846F75" style="fill:#2E334B"/><path d="m52.487 134.573a14.094 14.094 0 0 0 -4.923 6.1 60.659 60.659 0 0 0 -1.179 43.609l.4 1.132c.259.735.558 1.472.886 2.19a2.5 2.5 0 0 0 4.547-2.081c-.267-.583-.508-1.179-.719-1.775l-.4-1.135a55.661 55.661 0 0 1 1.084-40.02 8.975 8.975 0 0 1 5.349-5.071h.006a8.975 8.975 0 0 1 7.351.577 55.636 55.636 0 0 1 14.835 11.661 2.5 2.5 0 0 0 3.711-3.35 60.6 60.6 0 0 0 -16.163-12.71 14.081 14.081 0 0 0 -7.664-1.647l1.978-15.93a2.5 2.5 0 0 0 -3.315-2.665l-16.44 5.818a2.5 2.5 0 0 0 -.9 4.157zm3.639-15.052-1.288 10.379-7.525-7.255z" data-original="#846F75" class="" data-old_color="#846F75" style="fill:#2E334B"/><path d="m180.22 159.965a2.5 2.5 0 0 0 3.535 0l12.254-12.255a3.3 3.3 0 0 1 2.594-.953l7.43.6a2.513 2.513 0 0 0 1.97-.724l8.33-8.33 4.382 4.381-8.33 8.33a2.5 2.5 0 0 0 -.725 1.97l.6 7.43a3.291 3.291 0 0 1 -.953 2.594l-8.685 8.685a2.5 2.5 0 1 0 3.535 3.535l8.686-8.685a8.29 8.29 0 0 0 2.4-6.532l-.51-6.279 9.281-9.28a2.5 2.5 0 0 0 0-3.536l-7.914-7.916a2.5 2.5 0 0 0 -3.536 0l-9.28 9.28-6.278-.509a8.246 8.246 0 0 0 -6.533 2.4l-12.253 12.259a2.5 2.5 0 0 0 0 3.535z" data-original="#846F75" class="" data-old_color="#846F75" style="fill:#2E334B"/><path d="m111.161 158.086-19.252 4.129a2.5 2.5 0 0 0 -1.92 2.969l6.134 28.6a2.5 2.5 0 0 0 2.969 1.92l19.251-4.129a2.5 2.5 0 0 0 1.92-2.968l-6.133-28.6a2.5 2.5 0 0 0 -2.969-1.921zm-10.674 32.2-5.087-23.706 14.364-3.08 5.084 23.708z" data-original="#846F75" class="" data-old_color="#846F75" style="fill:#2E334B"/><path d="m171.058 117.342a2.5 2.5 0 0 0 3.963-3.048c-.263-.347-6.395-8.574-.169-15.146 7.347-7.755 3.32-17.541.165-21.631a2.5 2.5 0 0 0 -3.964 3.047c.263.347 6.4 8.574.17 15.146-7.348 7.755-3.323 17.541-.165 21.632z" data-original="#846F75" class="" data-old_color="#846F75" style="fill:#2E334B"/><path d="m181.763 121.624c-7.348 7.755-3.321 17.541-.165 21.632a2.5 2.5 0 0 0 3.964-3.048c-.264-.347-6.4-8.574-.17-15.145 7.348-7.756 3.321-17.542.165-21.633a2.5 2.5 0 0 0 -3.964 3.048c.263.347 6.395 8.574.17 15.146z" data-original="#846F75" class="" data-old_color="#846F75" style="fill:#2E334B"/><path d="m219.668 202.949h-185.336a11.75 11.75 0 1 0 0 23.5h185.336a11.75 11.75 0 1 0 0-23.5zm0 18.5h-185.336a6.75 6.75 0 1 1 0-13.5h185.336a6.75 6.75 0 1 1 0 13.5z" data-original="#846F75" class="" data-old_color="#846F75" style="fill:#2E334B"/></g><path d="m45.38 202.949a24.891 24.891 0 0 1 24.783-21.6 2.5 2.5 0 0 0 2.5-2.5 39.539 39.539 0 0 1 39.494-39.494 39.112 39.112 0 0 1 24.084 8.191 2.5 2.5 0 0 0 3.341-.26 20.069 20.069 0 0 1 34.351 10.414 2.5 2.5 0 0 0 2.245 2.072 36.1 36.1 0 0 1 32.673 35.728v7.446h5v-7.446a40.623 40.623 0 0 0 -35.378-40.509 25.075 25.075 0 0 0 -40.927-12.689 44.045 44.045 0 0 0 -25.389-7.949 44.551 44.551 0 0 0 -44.429 42.09 29.848 29.848 0 0 0 -27.381 26.5z" fill="#ed9abc" data-original="#ED9ABC" class="active-path" style="fill:#000000" data-old_color="#ed9abc"/></g> </svg>
