<?xml version="1.0" encoding="utf-8"?>
<!-- Generator: Adobe Illustrator 22.0.1, SVG Export Plug-In . SVG Version: 6.00 Build 0)  -->
<svg version="1.1" id="Layer_1" xmlns="http://www.w3.org/2000/svg" xmlns:xlink="http://www.w3.org/1999/xlink" x="0px" y="0px"
	 viewBox="0 0 24 24" style="enable-background:new 0 0 24 24;" xml:space="preserve">
<style type="text/css">
	.st0{fill:none;stroke:#FFFFFF;stroke-width:0.75;stroke-miterlimit:10;}
</style>
<path class="st0" d="M13.6,6.4c1.6,0.3,2.8,1.6,3.1,3.1 M13.6,3.2c3.3,0.4,5.9,3,6.2,6.2 M19,15.7v2.4c0,0.9-0.7,1.6-1.6,1.6
	c-0.1,0-0.1,0-0.2,0c-2.4-0.2-4.7-1.1-6.8-2.4C8.6,16,7,14.4,5.8,12.5c-1.3-2-2.1-4.4-2.4-6.8C3.3,4.9,3.9,4.1,4.8,4C4.9,4,5,4,5,4
	h2.4c0.8,0,1.5,0.5,1.6,1.3C9,6.1,9.2,6.9,9.4,7.6c0.2,0.5,0.1,1.3-0.3,1.6l-1,1c1.1,2,2.7,3.6,4.7,4.7l1-1c0.5-0.4,1.1-0.5,1.6-0.3
	c0.7,0.2,1.4,0.5,2.2,0.5C18.5,14.2,19,14.9,19,15.7z"/>
</svg>
